<mxfile host="app.diagrams.net" modified="2023-12-08T16:12:01.176Z" agent="Mozilla/5.0 (Macintosh; Intel Mac OS X 10_15_7) AppleWebKit/537.36 (KHTML, like Gecko) Chrome/119.0.0.0 Safari/537.36" version="22.1.7" etag="KOwGx_VDG51olp2JqYj3" type="github">
  <diagram name="Страница — 1" id="1OMni6dUVwAKYauq8e1N">
    <mxGraphModel>
      <root>
        <mxCell id="0" />
        <mxCell id="1" parent="0" />
      </root>
    </mxGraphModel>
  </diagram>
</mxfile>
